<svg width="40" height="41" viewBox="0 0 40 41" fill="none" xmlns="http://www.w3.org/2000/svg">
<path d="M28 20.5483C28 16.129 24.4194 12.5483 20 12.5483C15.5806 12.5483 12 16.129 12 20.5483C12 24.5412 14.9255 27.8509 18.75 28.4516V22.8609H16.7177V20.5483H18.75V18.7858C18.75 16.7809 19.9435 15.6735 21.7716 15.6735C22.6471 15.6735 23.5626 15.8296 23.5626 15.8296V17.7974H22.5535C21.56 17.7974 21.25 18.4141 21.25 19.0467V20.5483H23.4687L23.1139 22.8609H21.25V28.4516C25.0745 27.8509 28 24.5412 28 20.5483Z" fill="white" fill-opacity="0.5"/>
<path d="M0.5 1H35C37.4853 1 39.5 3.01472 39.5 5.5V40H5C2.51472 40 0.5 37.9853 0.5 35.5V1Z" stroke="white" stroke-opacity="0.25"/>
</svg>
