<svg width="15" height="9" viewBox="0 0 15 9" fill="none" xmlns="http://www.w3.org/2000/svg">
<g clip-path="url(#clip0_269_1792)">
<path d="M0.477404 6.82886L6.76641 0.389946C6.81742 0.337218 6.87851 0.29529 6.94605 0.266655C7.01359 0.23802 7.0862 0.223263 7.15956 0.223263C7.23292 0.223263 7.30553 0.23802 7.37308 0.266655C7.44062 0.29529 7.50171 0.337219 7.55271 0.389946C7.65727 0.497784 7.71574 0.642087 7.71574 0.792289C7.71574 0.942492 7.65727 1.0868 7.55271 1.19463L1.26371 7.63355C1.2127 7.68627 1.15161 7.7282 1.08407 7.75684C1.01653 7.78547 0.943916 7.80023 0.870555 7.80023C0.797194 7.80023 0.724583 7.78547 0.657042 7.75684C0.589501 7.7282 0.52841 7.68627 0.477404 7.63355C0.372848 7.52571 0.314378 7.38141 0.314378 7.2312C0.314378 7.081 0.372848 6.9367 0.477404 6.82886Z" fill="white"/>
<path d="M13.0498 7.63335L6.76081 1.19444C6.65625 1.0866 6.59778 0.942295 6.59778 0.792092C6.59778 0.64189 6.65625 0.497587 6.76081 0.389749C6.81182 0.337022 6.87291 0.295092 6.94045 0.266457C7.00799 0.237822 7.0806 0.223065 7.15396 0.223066C7.22732 0.223066 7.29993 0.237822 7.36747 0.266457C7.43501 0.295092 7.49611 0.337021 7.54711 0.389749L13.8361 6.82866C13.9405 6.93668 13.9987 7.08109 13.9984 7.23129C13.9982 7.3815 13.9395 7.5257 13.8347 7.63335C13.7837 7.68586 13.7227 7.7276 13.6553 7.75611C13.5879 7.78462 13.5155 7.7993 13.4423 7.7993C13.3691 7.7993 13.2966 7.78462 13.2292 7.75611C13.1618 7.7276 13.1008 7.68586 13.0498 7.63335Z" fill="white"/>
</g>
<defs>
<clipPath id="clip0_269_1792">
<rect width="8.026" height="14.312" fill="white" transform="translate(14.312) rotate(90)"/>
</clipPath>
</defs>
</svg>
