<svg width="40" height="41" viewBox="0 0 40 41" fill="none" xmlns="http://www.w3.org/2000/svg">
<path d="M20.0018 16.4306C17.7304 16.4306 15.8982 18.2475 15.8982 20.5C15.8982 22.7525 17.7304 24.5693 20.0018 24.5693C22.2732 24.5693 24.1054 22.7525 24.1054 20.5C24.1054 18.2475 22.2732 16.4306 20.0018 16.4306ZM20.0018 23.1456C18.5339 23.1456 17.3339 21.9591 17.3339 20.5C17.3339 19.0408 18.5304 17.8543 20.0018 17.8543C21.4732 17.8543 22.6697 19.0408 22.6697 20.5C22.6697 21.9591 21.4697 23.1456 20.0018 23.1456ZM25.2304 16.2641C25.2304 16.7918 24.8018 17.2133 24.2732 17.2133C23.7411 17.2133 23.3161 16.7883 23.3161 16.2641C23.3161 15.74 23.7447 15.315 24.2732 15.315C24.8018 15.315 25.2304 15.74 25.2304 16.2641ZM27.9482 17.2275C27.8875 15.956 27.5946 14.8297 26.6554 13.9018C25.7197 12.9739 24.5839 12.6835 23.3018 12.6197C21.9804 12.5454 18.0197 12.5454 16.6982 12.6197C15.4197 12.68 14.2839 12.9704 13.3447 13.8983C12.4054 14.8262 12.1161 15.9525 12.0518 17.2239C11.9768 18.5343 11.9768 22.462 12.0518 23.7725C12.1125 25.0439 12.4054 26.1702 13.3447 27.0981C14.2839 28.026 15.4161 28.3164 16.6982 28.3802C18.0197 28.4545 21.9804 28.4545 23.3018 28.3802C24.5839 28.32 25.7197 28.0295 26.6554 27.0981C27.5911 26.1702 27.8839 25.0439 27.9482 23.7725C28.0232 22.462 28.0232 18.5379 27.9482 17.2275ZM26.2411 25.1785C25.9625 25.8727 25.4232 26.4075 24.7197 26.6872C23.6661 27.1016 21.1661 27.006 20.0018 27.006C18.8375 27.006 16.3339 27.0981 15.2839 26.6872C14.5839 26.411 14.0447 25.8762 13.7625 25.1785C13.3447 24.1337 13.4411 21.6545 13.4411 20.5C13.4411 19.3454 13.3482 16.8627 13.7625 15.8214C14.0411 15.1272 14.5804 14.5925 15.2839 14.3127C16.3375 13.8983 18.8375 13.9939 20.0018 13.9939C21.1661 13.9939 23.6697 13.9018 24.7197 14.3127C25.4197 14.5889 25.9589 15.1237 26.2411 15.8214C26.6589 16.8662 26.5625 19.3454 26.5625 20.5C26.5625 21.6545 26.6589 24.1372 26.2411 25.1785Z" fill="white" fill-opacity="0.5"/>
<path d="M0.5 1H35C37.4853 1 39.5 3.01472 39.5 5.5V40H5C2.51472 40 0.5 37.9853 0.5 35.5V1Z" stroke="white" stroke-opacity="0.25"/>
</svg>
