<svg width="40" height="41" viewBox="0 0 40 41" fill="none" xmlns="http://www.w3.org/2000/svg">
<path d="M26.3554 17.241C26.3655 17.3831 26.3655 17.5253 26.3655 17.6674C26.3655 22.0024 23.066 26.9974 17.0356 26.9974C15.1777 26.9974 13.4518 26.4593 12 25.5253C12.264 25.5558 12.5178 25.5659 12.7919 25.5659C14.3249 25.5659 15.736 25.0482 16.863 24.1649C15.4213 24.1344 14.2132 23.1903 13.7969 21.8908C14 21.9212 14.203 21.9415 14.4163 21.9415C14.7107 21.9415 15.0051 21.9009 15.2792 21.8299C13.7767 21.5253 12.6497 20.2055 12.6497 18.6116V18.571C13.0863 18.8146 13.5939 18.9669 14.1319 18.9872C13.2487 18.3984 12.67 17.3933 12.67 16.2562C12.67 15.6471 12.8324 15.0887 13.1167 14.6014C14.7309 16.5913 17.1574 17.8907 19.8782 18.0329C19.8274 17.7892 19.7969 17.5355 19.7969 17.2816C19.7969 15.4745 21.2589 14.0024 23.0761 14.0024C24.0203 14.0024 24.8731 14.3984 25.4721 15.038C26.2132 14.8959 26.9238 14.6217 27.5533 14.2461C27.3096 15.0075 26.7919 15.6471 26.1117 16.0532C26.7716 15.9822 27.4112 15.7994 28 15.5456C27.5534 16.1953 26.995 16.774 26.3554 17.241Z" fill="white" fill-opacity="0.5"/>
<path d="M0.5 1H35C37.4853 1 39.5 3.01472 39.5 5.5V40H5C2.51472 40 0.5 37.9853 0.5 35.5V1Z" stroke="white" stroke-opacity="0.25"/>
</svg>
