<svg width="40" height="41" viewBox="0 0 40 41" fill="none" xmlns="http://www.w3.org/2000/svg">
<path d="M0.5 1H35C37.4853 1 39.5 3.01472 39.5 5.5V40H5C2.51472 40 0.5 37.9853 0.5 35.5V1Z" fill="#F88500"/>
<path d="M29.067 15.7459C29.1975 15.3162 29.067 15 28.4391 15H26.3616C25.8326 15 25.5892 15.2716 25.4587 15.5741C25.4587 15.5741 24.4005 18.0869 22.905 19.7162C22.4218 20.1872 22.1996 20.3384 21.9351 20.3384C21.8046 20.3384 21.6035 20.1872 21.6035 19.7575V15.7459C21.6035 15.2303 21.4554 15 21.018 15H17.7518C17.4203 15 17.2228 15.2406 17.2228 15.4641C17.2228 15.9522 17.9705 16.0656 18.0481 17.4406V20.4244C18.0481 21.0775 17.9282 21.1978 17.6637 21.1978C16.9582 21.1978 15.244 18.6747 14.2282 15.7872C14.0236 15.2269 13.8226 15 13.29 15H11.2125C10.6199 15 10.5 15.2716 10.5 15.5741C10.5 16.1103 11.2054 18.7744 13.7838 22.2944C15.5015 24.6972 17.9211 26 20.1221 26C21.4448 26 21.607 25.7113 21.607 25.2128C21.607 22.9166 21.4871 22.7 22.1502 22.7C22.4571 22.7 22.9862 22.8513 24.2207 24.0097C25.6315 25.3847 25.8643 26 26.6544 26H28.7319C29.3245 26 29.6243 25.7113 29.4514 25.1406C29.0564 23.9409 26.3863 21.4728 26.2664 21.3078C25.9595 20.9228 26.0477 20.7509 26.2664 20.4072C26.2699 20.4038 28.806 16.925 29.067 15.7459Z" fill="white"/>
<path d="M0.5 1H35C37.4853 1 39.5 3.01472 39.5 5.5V40H5C2.51472 40 0.5 37.9853 0.5 35.5V1Z" stroke="#F88500"/>
</svg>
